Run_30002
nRows=4
nColumns=164

# SIMM Motion File Header:
name Run_30002
datacolumns 164
datarows 4
otherdata 1
range 1.43000000 1.46000000
endheader
time	pelvis_tilt	pelvis_list	pelvis_rotation	pelvis_tx	pelvis_ty	pelvis_tz	hip_flexion_r	hip_adduction_r	hip_rotation_r	knee_angle_r	ankle_angle_r	hip_flexion_l	hip_adduction_l	hip_rotation_l	knee_angle_l	ankle_angle_l	lumbar_extension	lumbar_bending	lumbar_rotation	arm_flex_r	arm_add_r	arm_rot_r	elbow_flex_r	pro_sup_r	arm_flex_l	arm_add_l	arm_rot_l	elbow_flex_l	pro_sup_l	subtalar_angle_r	mtp_angle_r	subtalar_angle_l	mtp_angle_l	wrist_flex_r	wrist_dev_r	wrist_flex_l	wrist_dev_l	LASI_tx	LASI_ty	LASI_tz	RASI_tx	RASI_ty	RASI_tz	LPSI_tx	LPSI_ty	LPSI_tz	RPSI_tx	RPSI_ty	RPSI_tz	RTH1_tx	RTH1_ty	RTH1_tz	RTH2_tx	RTH2_ty	RTH2_tz	RTH3_tx	RTH3_ty	RTH3_tz	LTH1_tx	LTH1_ty	LTH1_tz	LTH2_tx	LTH2_ty	LTH2_tz	LTH3_tx	LTH3_ty	LTH3_tz	RTB1_tx	RTB1_ty	RTB1_tz	RTB2_tx	RTB2_ty	RTB2_tz	RTB3_tx	RTB3_ty	RTB3_tz	LTB1_tx	LTB1_ty	LTB1_tz	LTB2_tx	LTB2_ty	LTB2_tz	LTB3_tx	LTB3_ty	LTB3_tz	RCAL_tx	RCAL_ty	RCAL_tz	RTOE_tx	RTOE_ty	RTOE_tz	RMT5_tx	RMT5_ty	RMT5_tz	LCAL_tx	LCAL_ty	LCAL_tz	LTOE_tx	LTOE_ty	LTOE_tz	LMT5_tx	LMT5_ty	LMT5_tz	LACR_tx	LACR_ty	LACR_tz	RACR_tx	RACR_ty	RACR_tz	CLAV_tx	CLAV_ty	CLAV_tz	C7_tx	C7_ty	C7_tz	RUA1_tx	RUA1_ty	RUA1_tz	RUA2_tx	RUA2_ty	RUA2_tz	RUA3_tx	RUA3_ty	RUA3_tz	RLEL_tx	RLEL_ty	RLEL_tz	RMEL_tx	RMEL_ty	RMEL_tz	LUA1_tx	LUA1_ty	LUA1_tz	LUA2_tx	LUA2_ty	LUA2_tz	LUA3_tx	LUA3_ty	LUA3_tz	LLEL_tx	LLEL_ty	LLEL_tz	LMEL_tx	LMEL_ty	LMEL_tz	RFAsuperior_tx	RFAsuperior_ty	RFAsuperior_tz	RFAradius_tx	RFAradius_ty	RFAradius_tz	RFAulna_tx	RFAulna_ty	RFAulna_tz	LFAsuperior_tx	LFAsuperior_ty	LFAsuperior_tz	LFAradius_tx	LFAradius_ty	LFAradius_tz	LFAulna_tx	LFAulna_ty	LFAulna_tz
      1.43000000	     -1.38542414	      0.83623785	     -3.42884929	      0.84161372	      1.03166580	     -0.35229899	    -14.22638757	      2.13708294	      2.18810145	    -38.28270197	    -26.39877662	     21.03132320	      3.80189645	      3.91789553	     -4.58977201	      3.58923150	     -9.70407774	     -4.76290091	      9.05019316	    -18.19848032	    -23.80385362	    -14.25628175	    102.12526273	     75.29130064	    -38.27309982	    -15.23354095	    -16.17659126	     96.33572697	     93.38145951	      0.00000000	      0.00000000	      0.00000000	      0.00000000	      0.00000000	      0.00000000	      0.00000000	      0.00000000	      0.84990705	      1.06227307	     -0.48169648	      0.84061873	      1.04988411	     -0.22307517	      0.67518303	      1.08224316	     -0.41717252	      0.67371238	      1.08834769	     -0.31142085	      0.70097789	      0.87555600	     -0.19205053	      0.75038480	      0.75041957	     -0.20996286	      0.64680838	      0.66085804	     -0.23368889	      0.81075021	      0.86287111	     -0.53505755	      0.91512774	      0.75133330	     -0.50986649	      0.89346070	      0.62658630	     -0.49018311	      0.56666050	      0.42344369	     -0.30416990	      0.49961338	      0.41225408	     -0.24316245	      0.42550111	      0.32846581	     -0.30558980	      1.00014607	      0.41721905	     -0.41092153	      0.97272778	      0.32055759	     -0.46760583	      1.02483838	      0.26380166	     -0.40299537	      0.28022415	      0.35609383	     -0.32017282	      0.31108302	      0.13199960	     -0.34106943	      0.26851156	      0.16829650	     -0.26395307	      0.95490316	      0.09286608	     -0.38646663	      1.17346966	      0.15835369	     -0.36940670	      1.13115213	      0.12065338	     -0.45893223	      0.81691940	      1.51780564	     -0.54545302	      0.84626769	      1.54386204	     -0.21931925	      0.88350195	      1.46879019	     -0.35569262	      0.76759058	      1.54982727	     -0.37329228	      0.80087281	      1.47814421	     -0.12875161	      0.72828860	      1.41035476	     -0.13561397	      0.76321651	      1.36544639	     -0.08326802	      0.73279036	      1.26777352	     -0.03508380	      0.70958405	      1.24607106	     -0.11194140	      0.73051369	      1.47194390	     -0.60871256	      0.66580610	      1.41941319	     -0.55176223	      0.62442366	      1.37060016	     -0.60533927	      0.57584042	      1.29864407	     -0.63275207	      0.58341556	      1.28851803	     -0.55825068	      0.83693540	      1.23692000	     -0.04300773	      0.97640664	      1.19690084	     -0.10141753	      0.95279607	      1.13412048	     -0.07487001	      0.65973377	      1.22258565	     -0.65631840	      0.78547779	      1.11695616	     -0.61645483	      0.73075304	      1.07567377	     -0.63981612
      1.44000000	     -0.89215159	      0.85376130	     -3.40621244	      0.84064576	      1.02851790	     -0.35186167	    -12.76926260	      2.37804200	      3.06733906	    -43.80607874	    -24.79609537	     20.82544044	      4.12759774	      4.11324384	     -6.55275340	      4.46496424	    -10.47131065	     -4.96195241	      8.70611059	    -18.29974475	    -23.51785620	    -14.27454710	    101.90812813	     75.32758122	    -37.16726013	    -15.71267627	    -15.78180662	     96.58651720	     93.23817820	      0.00000000	      0.00000000	      0.00000000	      0.00000000	      0.00000000	      0.00000000	      0.00000000	      0.00000000	      0.84940701	      1.05844609	     -0.48194345	      0.83926146	      1.04751792	     -0.22160873	      0.67392968	      1.07615776	     -0.41666239	      0.67235049	      1.08541686	     -0.30964844	      0.70567985	      0.86832147	     -0.19113753	      0.75820423	      0.74475406	     -0.21150306	      0.65747059	      0.65222259	     -0.23353307	      0.81155733	      0.85789138	     -0.53698956	      0.91607036	      0.74777814	     -0.51065376	      0.89751057	      0.62475913	     -0.48754156	      0.57442521	      0.41891873	     -0.30317159	      0.50779818	      0.41229237	     -0.24207296	      0.42764885	      0.33385270	     -0.30386623	      0.99636961	      0.41242214	     -0.40740368	      0.96788195	      0.31601009	     -0.46394157	      1.01726201	      0.25832415	     -0.39959607	      0.28175208	      0.37061643	     -0.31650985	      0.30459280	      0.14543337	     -0.33812305	      0.26414721	      0.18357666	     -0.25988264	      0.94341758	      0.08883046	     -0.38450703	      1.16319847	      0.14896415	     -0.36723849	      1.11925499	      0.11559451	     -0.45547862	      0.81835066	      1.51256584	     -0.54634295	      0.84618483	      1.53907706	     -0.21983506	      0.88299598	      1.46418735	     -0.35586768	      0.76792078	      1.54615845	     -0.37461359	      0.79987272	      1.47381260	     -0.12902528	      0.72643609	      1.40654803	     -0.13659155	      0.76062511	      1.36142627	     -0.08398648	      0.72907329	      1.26421275	     -0.03610429	      0.70707293	      1.24286075	     -0.11319110	      0.73259777	      1.46540114	     -0.61081569	      0.66731006	      1.41238408	     -0.55425775	      0.62725956	      1.36300589	     -0.60812312	      0.57999442	      1.29073988	     -0.63625657	      0.58629539	      1.28066908	     -0.56147633	      0.83309307	      1.23243400	     -0.04307499	      0.97262197	      1.19125997	     -0.10043527	      0.94824861	      1.12870858	     -0.07408506	      0.66585175	      1.21582171	     -0.65866637	      0.79263029	      1.11271713	     -0.61654067	      0.73908719	      1.07038554	     -0.64047795
      1.45000000	     -0.20936848	      1.14252445	     -3.42761313	      0.83980210	      1.02483026	     -0.35158919	    -11.34317042	      2.21304654	      3.45095374	    -49.34093197	    -22.96478708	     20.49105423	      4.80608802	      4.80680565	     -9.34766270	      4.85930836	    -11.44127948	     -5.47173473	      8.25610323	    -18.38140564	    -23.21059244	    -14.18998824	    101.53548293	     75.18292403	    -35.84386104	    -16.34884157	    -15.29961519	     96.73735650	     93.53714475	      0.00000000	      0.00000000	      0.00000000	      0.00000000	      0.00000000	      0.00000000	      0.00000000	      0.00000000	      0.84829641	      1.05417631	     -0.48267067	      0.83751768	      1.04389181	     -0.22013745	      0.67401962	      1.06910152	     -0.41620687	      0.67057811	      1.08118940	     -0.30786727	      0.71042411	      0.85988386	     -0.19002246	      0.76591472	      0.73850031	     -0.21205713	      0.66845564	      0.64271056	     -0.23315359	      0.81419741	      0.85377199	     -0.53914062	      0.91972485	      0.74694167	     -0.51166935	      0.90283764	      0.62321021	     -0.48525454	      0.58397416	      0.41456137	     -0.30187926	      0.51777033	      0.41174660	     -0.24095512	      0.43237747	      0.33853380	     -0.30210285	      0.99109163	      0.40573530	     -0.40391090	      0.96073309	      0.31074934	     -0.46207942	      1.00585749	      0.25107641	     -0.39561939	      0.28665435	      0.38427252	     -0.31323632	      0.30249149	      0.15838858	     -0.33510643	      0.26380719	      0.19832004	     -0.25529074	      0.92618340	      0.08629229	     -0.38317615	      1.14726121	      0.13766986	     -0.36326690	      1.10460207	      0.10478265	     -0.45197815	      0.81989068	      1.50625841	     -0.54690209	      0.84568929	      1.53318961	     -0.22055756	      0.88271514	      1.45838898	     -0.35567861	      0.76864789	      1.54135305	     -0.37607248	      0.79864270	      1.46856823	     -0.12934415	      0.72438325	      1.40211867	     -0.13730197	      0.75776234	      1.35643628	     -0.08475284	      0.72479316	      1.25977391	     -0.03719189	      0.70402046	      1.23877726	     -0.11450656	      0.73564660	      1.45732990	     -0.61368487	      0.66995871	      1.40359472	     -0.55788181	      0.63057092	      1.35375427	     -0.61193049	      0.58589290	      1.28080801	     -0.64097746	      0.58966430	      1.27114546	     -0.56530253	      0.82858414	      1.22684207	     -0.04311753	      0.96839375	      1.18415647	     -0.09908866	      0.94280043	      1.12187735	     -0.07307305	      0.67268931	      1.20760823	     -0.66132584	      0.80072955	      1.10731043	     -0.61650244	      0.74936719	      1.06369624	     -0.64178066
      1.46000000	      0.49928059	      1.58543000	     -3.43569137	      0.83903690	      1.02027078	     -0.35145911	     -9.82803708	      1.76316818	      3.44719093	    -54.74791703	    -21.31716697	     20.08088330	      5.73465994	      5.62826594	    -12.50135009	      4.39217171	    -12.42600243	     -6.15545249	      7.62432847	    -18.44705016	    -22.91156350	    -13.96683044	    101.01237420	     74.95760390	    -34.38334464	    -17.12915420	    -14.73452008	     96.80599135	     94.13289356	      0.00000000	      0.00000000	      0.00000000	      0.00000000	      0.00000000	      0.00000000	      0.00000000	      0.00000000	      0.84706831	      1.04938862	     -0.48386641	      0.83594769	      1.03877059	     -0.21902674	      0.67467896	      1.06126320	     -0.41595664	      0.66900212	      1.07546010	     -0.30642968	      0.71496842	      0.85062177	     -0.18875310	      0.77303964	      0.73156053	     -0.21147698	      0.67940211	      0.63251555	     -0.23232686	      0.81690341	      0.84947776	     -0.53936847	      0.92389606	      0.74687443	     -0.51079135	      0.90695056	      0.62068177	     -0.48359940	      0.59548011	      0.41034999	     -0.30107091	      0.52928987	      0.41041023	     -0.23975043	      0.43942348	      0.34223194	     -0.30019691	      0.98459384	      0.39744980	     -0.40040081	      0.95210739	      0.30487793	     -0.46144013	      0.99198814	      0.24241478	     -0.39166357	      0.29512332	      0.39623077	     -0.31070533	      0.30343557	      0.16986966	     -0.33126495	      0.26691150	      0.21194408	     -0.25043711	      0.90504822	      0.08622907	     -0.38201879	      1.12743417	      0.12403826	     -0.35814148	      1.08692819	      0.09031138	     -0.44833586	      0.82148878	      1.49889757	     -0.54727685	      0.84475234	      1.52649801	     -0.22128391	      0.88252923	      1.45150606	     -0.35527460	      0.76948573	      1.53549460	     -0.37758887	      0.79693539	      1.46246877	     -0.12986113	      0.72205382	      1.39709498	     -0.13790246	      0.75463278	      1.35056970	     -0.08559339	      0.71996516	      1.25458420	     -0.03830896	      0.70043042	      1.23394909	     -0.11584888	      0.73951774	      1.44791447	     -0.61697997	      0.67352942	      1.39338455	     -0.56261432	      0.63511428	      1.34286825	     -0.61706591	      0.59328372	      1.26905574	     -0.64663777	      0.59379352	      1.25997634	     -0.56986940	      0.82340928	      1.22026201	     -0.04314320	      0.96358456	      1.17572267	     -0.09745057	      0.93647707	      1.11376618	     -0.07180771	      0.68044779	      1.19797420	     -0.66412925	      0.80977607	      1.10079694	     -0.61632995	      0.76124118	      1.05578335	     -0.64357324
